<svg xmlns="http://www.w3.org/2000/svg" xmlns:xlink="http://www.w3.org/1999/xlink" version="1.1" x="0px" y="0px" viewBox="0 0 100 100" enable-background="new 0 0 100 100" xml:space="preserve"><path fill="#FFFFFF" d="M24,51c0,1.104,0.896,2,2,2h43.078L51.68,70.398c-0.781,0.781-0.781,2.047,0,2.828  c0.39,0.391,0.902,0.586,1.414,0.586s1.024-0.195,1.414-0.586L75.414,52.32c0.781-0.781,0.781-2.047,0-2.828L54.508,28.586  c-0.78-0.781-2.048-0.781-2.828,0c-0.781,0.781-0.781,2.047,0,2.828L69.265,49H26C24.896,49,24,49.896,24,51z"></path></svg>