<?xml version="1.0" encoding="utf-8"?>
<!-- Generator: Adobe Illustrator 20.1.0, SVG Export Plug-In . SVG Version: 6.00 Build 0)  -->
<svg version="1.1" id="Layer_1" xmlns="http://www.w3.org/2000/svg" xmlns:xlink="http://www.w3.org/1999/xlink" x="0px" y="0px"
	 viewBox="0 0 247.3 218.9" style="enable-background:new 0 0 247.3 218.9;" xml:space="preserve">
<style type="text/css">
	.st0{fill:#FFFFFF;}
</style>
<g>
	<path class="st0" d="M91,81.6l2.1-4.7c3.9-8.8,5.7-17.4,5.7-25.5c0-11.2-4.2-20-12.7-27c-8.3-7-18.5-10.7-30.2-10.7
		c-10.7,0-20.5,3.6-29.1,10.7c-8.6,7-13,16.1-13,26.8c0,16.4,12,29.4,28.6,29.4c9.4,0,15.6-3.6,18.7-10.7C65,59.5,78.3,65,74.9,74.4
		c-4.9,12.7-17.7,19.8-32.5,19.8c-11.7,0-21.8-4.2-30.2-12.5C4.2,73.3,0,63.2,0,51c0-14,5.7-26,16.9-35.9C28.3,4.9,41.3,0,56.2,0
		C71,0,84,4.7,95.4,14.3c11.7,9.6,17.4,21.8,17.4,36.7c0,2.6,0,4.7-0.3,6c2.3-3.4,5.5-6.5,8.8-9.9c9.6-9.6,24.4-15.9,34.1-15.9
		c13.5,0,21.6,8.1,23.7,19.8c0,0.3,0.3,0.8,0.3,1c0.3,1.6,1.3,1.6,3.1-0.3c11.7-12.5,27.8-20.5,39-20.5c16.9,0,25.7,11.7,25.7,26.3
		c0,5.7-1,10.7-3.1,14.8l-55.4,119.9c-1.8,4.9-2.6,7.8-2.6,9.1c0,1.8,0.3,2.9,0.5,3.1c3.9,3.4,4.4,7,1.8,10.9
		c-2.3,3.4-4.9,4.4-8.1,3.1l-1.8-1c-4.9-3.4-7.5-8.6-7.5-16.1c0-3.9,1.3-9.1,3.9-15.3l53-114.1c2.1-4.9,3.1-9.1,3.1-12.5
		c0-7.3-4.7-12.5-13.3-12.5c-15.6,0-34.1,13.8-45.5,38l-49.1,106.6c-2.1,3.9-4.9,6-8.8,6c-5.5,0-8.8-4.2-6-10.7L162,71.8
		c2.3-5.2,3.6-9.4,3.6-12.2c0-7.5-4.9-12.7-12-12.7c-16.6,0-36.7,15.6-51,44.7l-2.1,4.4l-43.4,95.4c-2.1,3.9-4.9,6-8.8,6
		c-5.2,0-8.8-4.4-6-10.7l44.2-95.4L91,81.6z"/>
</g>
</svg>
