<?xml version="1.0" encoding="utf-8"?>
<!-- Generator: Adobe Illustrator 21.0.2, SVG Export Plug-In . SVG Version: 6.00 Build 0)  -->
<svg version="1.1" id="Layer_1" xmlns="http://www.w3.org/2000/svg" xmlns:xlink="http://www.w3.org/1999/xlink" x="0px" y="0px"
	 viewBox="0 0 519.8 419.6" style="enable-background:new 0 0 519.8 419.6;" xml:space="preserve">
<style type="text/css">
	.st0{fill:#FFFFFF;}
</style>
<g>
	<path class="st0" d="M519.8,74.8c0,12.3-1.5,24-4.6,35.1c-3.1,11.1-10,22.5-20.7,34.1c-10.7,11.6-24.7,19.6-42,24L488,296.6h-52.6
		l-30.1-121.2h-40.5l-21.3,121.2h-48.9L346.8,0h82.3C489.5,0,519.8,24.9,519.8,74.8z M407.4,139.5c12.3,0,22.6-1.9,31.1-5.8
		c8.5-3.9,14.7-9.1,18.6-15.7c3.9-6.5,6.7-13,8.4-19.2c1.7-6.3,2.5-13,2.5-20.3c0-16.1-3.6-27.2-10.9-33c-7.2-5.8-17-8.8-29.2-8.8
		h-38.4L371,139.5H407.4z"/>
	<path class="st0" d="M253.2,296.6L305.4,0h-70.2L150,198.9c-6.1,15.3-10.4,27.9-12.9,37.6h-1.3c0.8-8.4,0.8-20.7,0-37.2L120.7,0
		H52.2L0,296.6h43l34.3-193.8c4.5-25.3,7.4-44,8.8-56h1.7c-0.8,11.1-0.8,24.5,0,40.1l16.7,209.7h43.9l90.2-209.7
		c7.2-18.1,12-31.5,14.2-40.1h1.7c-3.1,12.8-6.8,31.5-11.3,56l-33.8,193.8l-10.5,60.2h-27.1l37.1,62.9l64.9-62.9h-31.2L253.2,296.6z
		"/>
</g>
</svg>
