<svg xmlns="http://www.w3.org/2000/svg" xmlns:xlink="http://www.w3.org/1999/xlink" version="1.1" id="Layer_1" x="0px" y="0px" viewBox="0 0 100 100" style="enable-background:new 0 0 100 100;" xml:space="preserve" height="100px" width="100px">
<style type="text/css">
	.st0{fill-rule:evenodd;clip-rule:evenodd;}
</style>
<g>
	<path class="st0" d="M24.363,41.762c-0.267,0.289,0.854,1.861,1.056,2.015c0.208,0.16,0.501,0.302,0.739,0.391   c0.366,0.136,1.115,0.035,1.409,0.296c0.252,0.223,0.833,0.205,1.115,0.247c0.664,0.089,1.336,0.089,2.001,0.173   c1.201,0.151,2.588,0.069,3.8-0.001c1.255-0.073,2.501-0.233,3.752-0.361c0.499-0.051,1.022,0.01,1.512-0.082   c0.696-0.131,1.401,0.007,2.071-0.124c2.09-0.41,4.372,0.083,6.41,0.085c2.528,0.003,5.032-0.101,7.55-0.121   c1.34-0.011,2.67-0.252,4.006-0.249c0.839,0.002,1.703,0.196,2.479,0.271c1.231,0.105,2.564-0.091,3.81-0.11   c1.288-0.02,2.546,0.151,3.855,0.078c0.422-0.023,1.156,0.088,1.407-0.307c0.197-0.311,0.641-0.352,0.804-0.596   c0.517-0.772,0.675-1.403,0.779-2.31c0.085-0.745-0.322-1.115-0.444-1.76c-0.057-0.301-0.311-0.846-0.43-1.185   c-0.361-1.028-0.786-1.982-1.197-2.974c-0.708-1.71-1.567-3.312-2.345-4.94c-0.824-1.722-1.838-3.557-3.155-4.947   c-0.456-0.481-0.869-0.995-1.232-1.401c-0.63-0.715-1.292-1.592-2.14-2.1c-1.101-0.659-2.246-1.344-3.409-1.948   c-0.823-0.427-1.54-0.641-2.356-1.027c-0.411-0.195-0.895-0.306-1.274-0.454c-0.233-0.093-0.361-0.252-0.628-0.263   c-0.375-0.016-0.695-0.162-1.082-0.223c-0.142-0.022-1.305-0.142-1.358-0.224c-0.309-0.484-2.229-0.247-2.648-0.188   c-1.505,0.211-3.02,0.146-4.513,0.401c-1.987,0.339-3.929,0.81-5.684,1.761c-0.997,0.534-2.077,0.947-3.036,1.488   c-0.902,0.513-1.822,1.014-2.719,1.586c-0.365,0.233-0.862,0.45-1.188,0.706c-0.448,0.348-0.977,1.572-1.539,1.678   c-0.131,0.025-0.721,0.577-0.74,0.687c-0.029,0.167-0.472,0.469-0.58,0.684c-0.246,0.488-0.576,0.898-0.915,1.325   c-0.479,0.603-0.93,1.225-1.265,1.895c-0.084,0.169-0.137,0.348-0.224,0.521c-0.142,0.281-0.577,0.82-0.587,1.113   c-0.01,0.264-0.518,1.283-0.725,1.513c-0.399,0.444-0.558,1.364-0.672,1.922c-0.237,1.164-0.417,2.323-0.628,3.485   c-0.117,0.642-0.21,1.101-0.048,1.742C24.259,40.326,24.704,41.397,24.363,41.762C24.345,41.781,24.682,41.42,24.363,41.762z    M28.469,38.757c0.054-0.488,0.546-0.881,0.56-1.296c0.007-0.212,0.262-0.724,0.368-0.915c0.223-0.399,0.578-0.75,0.775-1.157   c0.175-0.362,0.237-0.835,0.422-1.234c0.396-0.859,0.876-1.724,1.326-2.533c0.111-0.198,0.299-0.319,0.417-0.546   c0.129-0.252,0.157-0.585,0.406-0.868c0.782-0.886,1.539-1.841,2.356-2.643c0.08-0.079,0.961-0.82,0.974-0.771   c-0.06-0.228,2.869-1.463,3.171-1.647c0.614-0.375,1.253-0.61,1.88-0.974c0.537-0.312,1.14-0.438,1.748-0.538   c0.662-0.109,1.648-0.064,2.229-0.418c0.495-0.302,1.513-0.15,2.084-0.203c0.425-0.039,0.968,0.027,1.325-0.003   c0.363-0.03,0.592,0.049,0.923,0.149c0.548,0.166,1.292,0.121,1.795,0.367c0.583,0.284,1.662,0.424,2.123,0.839   c0.682,0.614,1.252,0.374,2.099,0.651c0.279,0.09,0.782,0.46,1.067,0.641c0.492,0.312,0.951,0.644,1.325,1.096   c0.475,0.575,0.993,1.084,1.51,1.68c1.282,1.478,2.526,3.48,3.259,5.326c0.225,0.564,0.599,1.035,0.895,1.546   c0.398,0.689,0.995,1.398,1.221,2.162c0.172,0.582,1.052,1.409-0.081,1.611c-0.579,0.104-1.154-0.005-1.735,0.003   c-0.611,0.008-0.585-0.393-0.858-0.736c-0.155-0.194-0.155,0.057-0.327-0.286c-0.098-0.196-0.227-0.439-0.38-0.6   c-0.336-0.348-0.907-0.756-1.311-1c-0.785-0.473-1.407-0.18-1.981,0.39c-0.379,0.377-0.68,0.536-0.743,1.112   c-0.031,0.287-0.029,0.6-0.194,0.852c-0.37,0.08-0.744,0.142-1.12,0.187c-1.639,0.2-3.293,0.114-4.939,0.128   c-1.855,0.016-3.904,0.057-5.61,0.026c-1.1-0.02-2.204-0.122-3.255-0.027c-1.261,0.114-2.518-0.019-3.767,0.109   c-1.468,0.151-2.931,0.281-4.403,0.383c-1.575,0.109-3.237,0.336-4.813,0.192C28.293,39.733,28.378,39.574,28.469,38.757   C28.498,38.493,28.441,39.006,28.469,38.757z"/>
	<path class="st0" d="M46.373,28.988c0.315,0.757,1.328,1,2.108,1.089c0.567,0.063,1.606-0.166,1.971-0.658   c0.323-0.781,0.12-1.669-0.303-2.369c-0.245-0.405-0.744-0.976-1.237-1.052c-0.391-0.064-0.779,0.032-1.169,0.059   c-0.239,0.016-0.658-0.097-0.88,0.02C45.634,26.737,45.871,27.874,46.373,28.988C46.376,28.996,46.303,28.834,46.373,28.988z"/>
	<path class="st0" d="M37.556,29.784c0.139,0.085,0.332,0.806,0.528,1.007c0.369,0.376,0.789,0.623,1.307,0.569   c0.891-0.093,1.242-0.598,1.845-1.19c0.64-0.629,0.499-1.397,0.388-2.21c-0.874-0.892-2.283-0.878-3.346-0.484   C37.576,27.738,36.78,29.288,37.556,29.784z"/>
	<path class="st0" d="M55.201,31.916c0.243,0.308,0.742,0.448,1.092,0.559c0.351,0.111,0.73-0.01,1.027,0.173   c0.416,0.257,0.863,0.3,1.338,0.204c0.954-0.191,1.097-0.661,0.685-1.494c0.581-0.5-0.582-1.504-0.917-1.737   c-0.456-0.317-2.264-1.821-2.867-0.895c-0.217,0.333-0.722,0.469-0.862,0.905C54.488,30.284,54.781,31.386,55.201,31.916   C55.266,31.998,55.056,31.734,55.201,31.916z"/>
	<path class="st0" d="M41.511,33.664c-0.455,0.975-0.03,2.927,1.263,3.051c0.742,0.071,2.1-0.081,2.518-0.629   c0.843-1.106,0.337-2.197-0.699-2.837C43.456,32.544,42.173,32.24,41.511,33.664C41.418,33.865,41.538,33.606,41.511,33.664z"/>
	<path class="st0" d="M32.705,36.715c-0.003,0.152,0.424,0.648,0.517,0.793c0.176,0.273,0.313,0.458,0.582,0.658   c0.422,0.314,1.313,0.22,1.735,0.01c0.593-0.295,1.567-0.365,1.97-0.736c0.592-0.536,0.687-1.664,0.183-2.28   c-0.387-0.472-0.781-0.529-1.176-0.724c-0.33-0.159-0.738-0.585-1.194-0.576c-0.437,0.009-0.903-0.032-1.336,0.015   c-0.283,0.031-0.459,0.41-0.639,0.611c-0.274,0.306-0.578,0.609-0.74,0.993C32.53,35.66,32.361,36.665,32.705,36.715   C32.699,37.063,32.557,36.694,32.705,36.715z"/>
	<path class="st0" d="M49.282,33.107c-0.414,0.258-0.907,0.786-1.027,1.29c-0.151,0.637,0.323,1.021,0.524,1.523   c0.491,1.233,1.988,1.065,3.058,0.863c0.358-0.068,0.956-0.355,1.153-0.689c0.337-0.574-0.036-1.564-0.444-2.054   C51.954,33.321,50.241,32.514,49.282,33.107C49.237,33.135,49.609,32.905,49.282,33.107z"/>
	<path class="st0" d="M24.755,54.85c0.928,0.481,1.703,0.068,2.607-0.069c1.285-0.196,2.413-0.839,3.696-1.024   c0.756-0.109,1.45,0.079,2.115,0.252c0.275,0.073,0.607,0.06,0.906,0.172c0.274,0.103,0.73,0.43,1.029,0.348   c0.084-0.023,1.05,0.3,1.05,0.301c0.011,0.021,0.635,0.21,0.685,0.212c1.092,0.046,2.172,0.427,3.217,0.588   c1.17,0.19,2.36-0.237,3.507-0.436c0.63-0.109,1.259-0.179,1.89-0.272c0.715-0.105,1.228-0.72,1.945-0.781   c0.497-0.042,0.96-0.232,1.431-0.388c0.579-0.192,1.168-0.21,1.755-0.357c0.505-0.126,0.854-0.014,1.324-0.051   c0.137-0.012,1.13,0.056,1.234,0.17c0.148,0.164,0.692,0.242,0.907,0.385c0.234,0.156,0.947,0.484,1.233,0.461   c0.286-0.023,0.975,0.244,1.292,0.339c0.388,0.116,0.786,0.145,1.18,0.271c0.329,0.105,0.689,0.146,1.028,0.276   c0.179,0.069,0.866,0.093,0.939,0.23c0.086,0.161,1.725,0.229,1.733,0.228c0.55-0.095,1.322,0.113,2.018,0.032   c1.049-0.122,2.545-0.236,3.454-0.797c0.678-0.419,1.754-0.798,2.577-0.942c0.956-0.168,1.53-0.008,2.447,0.153   c0.899,0.158,1.808,0.016,2.431-0.697c0.675-0.773,0.175-2.103-0.216-2.919c-0.337-0.704-1.511-0.805-2.148-0.982   c-0.803-0.223-1.689-0.356-2.452-0.548c-1.063-0.278-2.272-0.037-3.31,0.237c-0.862,0.227-2.008,0.498-2.775,0.932   c-0.478,0.27-1.125,0.244-1.651,0.365c-0.279,0.057-0.615,0.202-0.975,0.213c-1.4,0.045-2.734-0.418-4.084-0.713   c-0.75-0.164-1.383-0.558-2.096-0.813c-1.056-0.377-2.131-0.524-3.248-0.591c-2.595-0.154-5.049,0.366-7.531,1.064   c-0.984,0.277-2.004,0.774-3.061,0.962c-1.152,0.205-2.404,0.023-3.538-0.248c-0.611-0.148-1.129-0.389-1.76-0.508   c-0.179-0.034-0.669-0.087-0.74-0.232c-0.119-0.239-0.637-0.027-0.745-0.243c-0.145-0.289-1.737-0.098-1.997-0.077   c-0.368,0.03-0.956-0.105-1.391-0.089c-0.473,0.018-0.944,0.17-1.332,0.26c-0.375,0.095-0.755,0.167-1.128,0.268   c-0.311,0.085-0.692,0.392-0.98,0.417c-0.443,0.037-1.121,0.682-1.43,0.679c-0.69-0.008-1.458,1.773-1.864,2.209   c-0.12,0.129,0.07,0.891,0.143,1.059C24.189,54.423,24.473,54.704,24.755,54.85z"/>
	<path class="st0" d="M25.687,63.943c0.374,0.29,0.529,0.52,1.028,0.613c0.348,0.065,0.587,0.195,0.888,0.343   c0.496,0.244,1.337,0.177,1.925,0.256c0.743,0.1,1.424-0.149,2.159-0.105c1.138,0.068,2.389,0.103,3.488,0.024   c1.144-0.082,2.271-0.01,3.457-0.064c1.457-0.067,2.917,0.015,4.373-0.087c1.678-0.118,3.342-0.353,5.027-0.364   c2.359-0.016,4.705,0.084,7.042-0.125c1.943-0.174,3.657,0.2,5.568,0.172c1.529-0.023,2.969,0.162,4.455,0.176   c0.732,0.007,1.45-0.161,2.184-0.119c0.68,0.039,1.333,0.089,2.015,0.026c1.336-0.123,3.317,0.009,4.448-0.663   c0.28-0.167,0.371-0.732,0.663-0.963c-0.055-0.556-0.27-1.067-0.359-1.614c-0.111-0.683-0.243-0.769-0.779-1.226   c-0.379-0.323-0.7-0.638-1.115-0.779c-1.5-0.542-3.38-0.229-5.03-0.083c-0.131,0.012-0.923,0.116-1.042-0.031   c-0.183-0.228-1.184,0.169-1.508,0.107c-0.927-0.178-1.967,0.082-2.908,0.048c-2.136-0.069-4.208-0.118-6.316-0.193   c-2.666-0.096-5.587-0.101-8.184,0.15c-2.27,0.22-4.586,0.248-6.837,0.415c-2.059,0.152-4.086,0.167-6.143,0.195   c-1.197,0.016-2.387,0.069-3.581,0.157c-0.993,0.073-2.037-0.11-3.009,0.034c-1.013,0.15-2.362,0.385-2.863,1.386   C24.123,62.843,24.836,63.282,25.687,63.943C25.84,64.062,25.464,63.77,25.687,63.943z"/>
	<path class="st0" d="M75.948,73.053c-0.111-0.243-0.147-0.543-0.284-0.648c-0.057-0.044-0.167-0.382-0.163-0.465   c0.008-0.193-0.121-0.07-0.217-0.17c-0.398-0.417-0.905-0.705-1.325-1.096c-0.055-0.052-0.613-0.244-0.742-0.242   c-1.034,0.016-1.918-0.212-2.951-0.24c-0.474-0.013-0.945,0.089-1.417,0.11c-0.163,0.007-0.819,0.02-0.934-0.088   c-0.136-0.128-0.699,0.022-0.905-0.172c-0.107-0.099-0.969-0.021-1.068-0.01c-0.704,0.08-1.373,0.094-2.08,0.078   c-0.169-0.004-1.346,0.11-1.427,0.009c-0.135-0.169-1.234-0.026-1.487-0.028c-0.472-0.003-1.021,0.053-1.483-0.011   c-0.725-0.098-1.417-0.399-2.135-0.362c-2.217,0.113-4.591-0.306-6.794-0.504c-2.553-0.229-5.138,0.189-7.696,0.151   c-1.043-0.016-2.051-0.044-3.094,0.004c-0.941,0.043-1.973-0.195-2.856-0.168c-1.97-0.014-4.136-0.068-6.146,0.24   c-1.308,0.201-2.63,0.078-3.942,0.316c-0.322,0.058-0.883,0.138-1.175,0.276c-0.334,0.156-0.413,0.801-0.659,0.919   c-0.567,0.273,0.092,2.798,0.145,3.268c0.07,0.626,0.156,1.2,0.257,1.827c0.072,0.449,0.068,1.227,0.306,1.628   c0.36,0.597,1.105,1.612,1.701,1.97c0.48,0.289,1.158,0.594,1.507,1.037c0.176,0.223,0.977,0.642,1.252,0.657   c0.222,0.012,0.395,0.218,0.581,0.264c0.354,0.088,0.767,0.064,1.099,0.146c1.017,0.255,2.097,0.208,3.186,0.306   c2.668,0.239,5.457,0.25,8.137,0.03c0.913-0.074,1.933,0.063,2.899,0.086c0.651,0.015,1.289,0.106,1.937,0.155   c0.386,0.029,0.896-0.039,1.254,0.067c0.863,0.254,2.016-0.025,2.919,0.016c1.442,0.067,2.852,0.17,4.299,0.136   c1.013-0.023,1.994-0.034,3.004,0.037c0.707,0.05,1.869-0.546,2.365-0.171c0.112,0.086,0.299-0.031,0.398,0.044   c0.09,0.069,0.858,0.004,0.99,0.023c1.147,0.166,2.386,0.101,3.548,0.161c2.131,0.11,4.566-0.199,6.533-0.99   c0.793-0.314,1.007-1.136,1.414-1.782c0.498-0.789,0.489-1.435,0.68-2.324c0.185-0.86,0.315-1.764,0.529-2.621   C76.043,74.403,76.194,73.592,75.948,73.053z M68.953,76.447c-0.7,1.643-4.072,0.587-5.381,0.817   c-0.794,0.139-1.622-0.006-2.461-0.043c-1.445-0.063-2.904-0.069-4.35-0.065c-2.078,0.006-4.232-0.124-6.248-0.03   c-2.635,0.123-5.335-0.475-7.952-0.198c-2.335,0.247-4.681,0.445-6.954,0.414c-0.742-0.01-1.437-0.028-2.235-0.076   c-0.559-0.034-0.821-0.055-1.23-0.367c-0.255-0.195-0.737-0.523-0.887-0.763c-0.389-0.626-0.622-1.498,0.367-1.625   c1.212-0.156,2.462,0.229,3.631,0.006c0.747-0.142,1.371,0.002,2.107,0.117c0.741,0.116,1.48-0.039,2.222-0.014   c1.304,0.043,2.641,0.183,3.903,0.196c0.581,0.006,1.134,0.085,1.717,0.027c0.488-0.049,0.954-0.166,1.445-0.195   c1.238-0.071,2.51,0.163,3.758,0.148c1.909-0.023,3.807-0.065,5.714,0.338c0.352,0.074,0.765,0.168,1.115,0.182   c0.271,0.011,1.325-0.293,1.478-0.089c0.092,0.122,0.824,0.114,0.993,0.145c0.503,0.094,0.934,0.236,1.421,0.369   c0.614,0.166,1.289,0.036,1.912,0c0.821-0.048,1.645,0.037,2.467,0.052c0.728,0.014,1.456,0.001,2.183-0.006   C68.147,75.784,69.307,75.612,68.953,76.447z"/>
</g>
</svg>